<?xml version="1.0" standalone="no"?>
<!DOCTYPE svg PUBLIC "-//W3C//DTD SVG 20010904//EN"
 "http://www.w3.org/TR/2001/REC-SVG-20010904/DTD/svg10.dtd">
<svg version="1.0" xmlns="http://www.w3.org/2000/svg"
 width="310.000000pt" height="310.000000pt" viewBox="0 0 310.000000 310.000000"
 preserveAspectRatio="xMidYMid meet">
<metadata>
Created by potrace 1.11, written by Peter Selinger 2001-2013
</metadata>
<g transform="translate(0.000000,310.000000) scale(0.100000,-0.100000)"
fill="#000000" stroke="none">
<path d="M1 2980 c0 -67 4 -119 7 -115 4 4 8 11 8 16 1 5 2 13 3 19 0 5 8 7
16 4 12 -5 14 -2 8 12 -6 17 -5 17 10 6 13 -11 14 -17 4 -32 -17 -28 0 -37 23
-13 16 17 16 22 5 27 -9 3 -12 12 -8 22 5 12 3 15 -6 9 -10 -6 -11 -3 -2 14
13 24 26 29 18 7 -4 -10 -1 -13 9 -9 16 6 20 -13 4 -20 -6 -3 -5 -4 2 -3 7 2
12 11 12 20 -1 9 4 17 12 17 28 3 32 4 40 12 13 13 27 7 15 -7 -7 -8 -8 -17
-3 -20 12 -7 22 3 22 21 0 24 29 47 44 34 9 -8 13 -7 13 4 0 8 -8 15 -18 15
-10 0 -20 4 -24 9 -3 6 6 8 20 5 17 -3 25 0 25 10 0 7 -7 13 -16 12 -9 0 -19
6 -21 14 -4 13 -3 13 5 1 9 -12 13 -12 26 -2 13 11 17 10 25 -10 7 -16 10 -19
10 -7 1 9 4 25 7 35 5 15 4 16 -5 3 -8 -10 -13 -12 -18 -4 -5 7 -58 12 -141
13 l-132 2 1 -121z m120 -2 c-11 -10 -13 -10 -7 0 5 7 1 12 -11 12 -15 0 -16
2 -3 10 21 13 38 -6 21 -22z"/>
<path d="M328 3089 c-10 -5 -18 -15 -18 -20 0 -6 7 -3 16 6 10 9 25 14 36 12
10 -3 16 -1 12 4 -7 12 -25 11 -46 -2z"/>
<path d="M2800 3085 c13 -16 30 -16 33 -1 1 5 -9 11 -22 13 -20 3 -22 1 -11
-12z"/>
<path d="M2888 3093 c6 -2 18 -2 25 0 6 3 1 5 -13 5 -14 0 -19 -2 -12 -5z"/>
<path d="M2920 3081 c-7 -11 -17 -18 -22 -15 -4 3 -8 0 -8 -6 0 -6 10 -8 27
-4 21 6 25 4 21 -8 -5 -11 0 -14 18 -10 15 3 24 11 24 23 0 11 4 19 10 19 5 0
7 -6 4 -13 -7 -20 22 -40 51 -35 14 3 25 1 25 -3 0 -5 -4 -9 -10 -9 -5 0 -10
-6 -10 -14 0 -9 8 -12 25 -8 23 4 25 9 25 53 l0 49 -83 0 c-70 0 -85 -3 -97
-19z"/>
<path d="M2970 3014 c-17 -10 -20 -14 -8 -14 9 0 18 -5 20 -10 2 -7 11 -4 23
5 19 16 19 16 -5 9 -22 -6 -23 -5 -11 10 16 19 14 19 -19 0z"/>
<path d="M2735 2980 c3 -5 8 -10 11 -10 2 0 4 5 4 10 0 6 -5 10 -11 10 -5 0
-7 -4 -4 -10z"/>
<path d="M3086 2971 c-4 -7 -5 -15 -2 -18 9 -9 19 4 14 18 -4 11 -6 11 -12 0z"/>
<path d="M1534 2948 c-21 -10 -50 -27 -64 -38 -20 -16 -22 -20 -7 -20 27 0 20
-16 -29 -67 l-46 -48 -14 40 c-7 22 -14 41 -14 43 -1 11 -44 -2 -57 -17 -9
-11 -20 -18 -25 -15 -5 3 -28 6 -52 7 -56 1 -99 -26 -169 -107 -45 -50 -54
-66 -44 -76 10 -10 9 -12 -5 -7 -9 3 -18 2 -20 -2 -2 -4 -16 -11 -31 -15 -19
-4 -26 -3 -22 4 3 5 -2 10 -11 10 -16 0 -16 1 2 15 17 13 14 14 -37 15 -42 0
-58 -4 -63 -15 -3 -9 0 -15 10 -15 13 0 12 -4 -4 -27 -11 -16 -29 -48 -41 -73
-11 -25 -39 -70 -61 -100 -52 -70 -63 -90 -51 -90 5 0 16 12 23 28 23 45 42
72 51 72 5 0 6 -8 3 -17 -17 -61 -17 -83 -2 -83 12 0 16 -11 16 -49 0 -27 -5
-62 -10 -76 -9 -23 -13 -25 -25 -15 -9 8 -15 8 -15 2 0 -6 5 -12 10 -14 15 -5
-26 -141 -46 -153 -38 -23 -77 -61 -98 -94 -49 -78 -72 -195 -41 -207 8 -4 15
-10 15 -16 0 -5 -4 -7 -8 -4 -4 2 -9 -3 -10 -12 -7 -63 -6 -77 7 -77 14 0 29
-27 30 -53 1 -18 -44 -36 -66 -27 -15 6 -10 10 22 21 26 8 33 13 20 14 -11 1
-24 3 -30 5 -5 1 -18 3 -28 3 -10 1 -15 6 -12 12 3 6 -1 7 -9 4 -18 -7 -22
-54 -5 -54 5 0 8 -4 5 -9 -8 -12 12 -19 73 -27 55 -7 56 -10 27 -92 -10 -27
-11 -44 -5 -48 6 -4 4 -13 -6 -24 -16 -17 -15 -19 7 -23 19 -4 18 -5 -7 -6
-16 -1 -35 -5 -41 -9 -17 -11 -24 -53 -11 -73 6 -10 8 -21 4 -25 -10 -10 -59
14 -52 26 3 6 0 10 -9 10 -9 0 -13 8 -11 25 1 14 -2 25 -7 25 -5 0 -6 9 -3 20
8 25 -20 59 -28 35 -3 -7 -1 -16 6 -18 9 -3 7 -9 -4 -21 -15 -16 -16 -15 -14
14 1 17 -2 33 -7 36 -4 3 -9 -3 -9 -13 -1 -10 -4 -4 -8 12 -9 39 -3 55 16 48
12 -5 14 -3 8 7 -6 10 -4 11 6 4 21 -13 40 -14 32 -1 -4 6 0 8 9 5 12 -5 14 0
12 25 -2 16 -6 32 -8 35 -9 9 -27 -11 -22 -24 3 -8 -1 -14 -9 -14 -19 0 -19 5
1 35 8 13 21 22 29 19 7 -3 16 -1 20 5 3 7 0 8 -9 5 -17 -7 -22 11 -6 21 15 9
-1 37 -19 31 -13 -5 -13 -3 2 8 17 13 16 14 -3 19 -11 3 -20 0 -20 -6 0 -7 -4
-7 -9 2 -5 8 -18 12 -31 8 -18 -5 -21 -2 -17 14 4 14 0 19 -14 19 -10 0 -19
-7 -19 -15 0 -8 -8 -15 -17 -16 -10 0 -28 -2 -41 -3 -16 -2 -19 1 -12 8 17 17
11 23 -16 18 -28 -5 -77 16 -68 30 3 4 0 8 -6 8 -7 0 -6 5 2 14 7 8 16 12 21
9 4 -2 7 3 7 11 0 15 -24 21 -60 16 -8 -1 -12 1 -8 5 3 3 13 8 22 9 9 1 16 5
16 9 0 4 0 12 0 18 0 8 -5 8 -15 -1 -8 -7 -15 -9 -15 -4 0 4 -7 -1 -15 -12
-14 -18 -14 -18 -15 6 0 19 -3 21 -12 12 -16 -16 -39 -15 -32 2 7 19 -25 29
-41 12 -11 -11 -14 -79 -15 -356 0 -239 3 -340 10 -335 7 4 9 -2 4 -19 -5 -21
-2 -26 12 -27 14 -1 13 -3 -6 -10 l-25 -8 25 2 c17 1 25 8 24 19 -1 10 2 15 7
12 5 -3 9 -14 9 -26 0 -14 5 -18 16 -14 9 4 24 1 32 -6 10 -8 13 -9 9 -1 -4 6
-3 22 2 35 l10 23 1 -25 c1 -15 4 -19 7 -10 3 8 12 21 21 28 14 10 13 12 -9
12 -23 1 -23 1 -4 13 13 7 19 20 17 32 -4 20 -3 20 11 1 14 -18 15 -18 37 12
12 17 28 28 35 26 7 -3 16 0 20 5 3 6 10 9 15 6 4 -3 13 2 20 10 7 8 19 15 26
15 8 0 14 6 14 13 0 8 4 7 10 -3 5 -8 10 -11 10 -6 0 5 7 3 15 -4 12 -10 15
-7 20 13 6 23 9 24 48 15 23 -5 59 -12 80 -15 24 -3 37 -10 37 -20 0 -13 3
-13 15 -3 12 10 15 10 15 -2 0 -12 -83 -98 -95 -98 -3 0 -22 -11 -43 -23 -20
-13 -44 -24 -52 -24 -72 -2 -168 -31 -320 -95 -83 -35 -80 -31 -80 -117 l0
-79 42 5 c24 3 54 0 68 -5 l25 -9 -35 -16 c-19 -8 -50 -29 -68 -47 -26 -26
-32 -38 -31 -73 0 -23 3 -36 6 -29 2 6 14 12 25 12 18 0 18 -1 3 -16 -18 -19
-16 -23 15 -29 32 -6 35 -12 11 -20 -20 -6 -20 -6 -1 -41 11 -18 16 -34 11
-34 -20 0 -30 -72 -34 -245 -5 -156 -3 -177 9 -160 10 13 14 15 14 4 0 -12 2
-12 10 1 8 12 10 9 10 -12 l0 -26 256 -1 c195 -1 254 1 248 10 -4 8 -3 9 4 5
17 -10 32 2 26 19 -3 8 -9 14 -12 13 -21 -2 -32 4 -32 18 0 8 4 13 9 10 4 -3
16 1 26 8 18 13 18 14 -3 20 -18 6 -20 11 -11 27 7 15 7 24 -2 35 -9 11 -8 14
5 14 11 0 14 4 10 13 -6 9 -5 9 7 0 13 -11 18 -9 29 12 7 14 19 25 25 25 7 0
18 7 25 15 9 10 9 15 1 15 -6 0 -11 -4 -11 -10 0 -5 -8 -10 -17 -10 -9 0 -13
3 -10 6 3 4 1 16 -4 27 -6 11 -7 22 -3 26 5 3 19 27 31 54 19 39 20 47 8 47
-12 0 -13 4 -5 19 6 12 17 17 29 14 21 -5 34 10 39 47 2 13 9 31 15 39 10 12
9 13 -10 2 -21 -11 -22 -10 -13 13 7 20 5 25 -11 29 -13 4 -17 11 -13 24 4 13
3 14 -3 5 -8 -10 -12 -10 -23 3 -10 12 -10 15 4 15 9 0 16 5 16 10 0 6 -7 10
-16 10 -11 0 -15 6 -11 20 3 12 1 20 -6 19 -41 -5 -66 2 -60 16 3 9 -3 25 -12
35 -17 19 -17 20 -1 20 9 0 14 -4 11 -10 -8 -12 8 -13 20 -1 6 5 71 12 146 15
l136 7 81 -66 c44 -36 87 -77 96 -90 9 -14 25 -25 35 -25 10 0 25 -8 34 -17
26 -30 67 -119 76 -168 5 -25 11 -48 14 -51 3 -3 34 14 69 39 35 24 90 58 123
75 66 33 161 107 157 122 -7 27 310 -22 360 -55 27 -18 83 -6 120 26 32 28 32
28 8 29 -19 0 -21 3 -12 12 16 16 15 30 -2 54 -14 18 -15 18 -26 -11 -11 -27
-13 -28 -20 -10 -4 11 -5 24 -2 29 3 5 0 6 -6 2 -6 -3 -13 -2 -17 4 -3 5 -1
10 4 10 6 0 11 5 11 11 0 6 -7 9 -15 5 -8 -3 -15 0 -15 7 0 7 -3 22 -6 35 -7
23 -5 23 57 22 82 -2 87 -1 70 9 -12 8 -12 12 2 25 8 9 23 16 31 16 20 0 50
45 40 61 -23 38 -4 99 32 99 24 0 53 58 47 96 -4 26 0 38 20 58 15 14 34 26
45 26 10 0 28 9 40 21 27 24 24 59 -14 155 -28 71 -29 78 -9 94 12 10 15 10
16 -1 1 -8 4 -3 8 11 8 26 12 27 46 14 18 -7 18 -6 6 9 -12 15 -11 17 10 17
21 0 21 1 5 13 -20 15 -13 43 15 57 21 12 40 70 32 99 -3 11 -15 21 -27 23
-15 2 -22 11 -24 33 -5 36 -15 44 -58 40 -19 -1 -31 2 -28 6 10 17 13 49 3 44
-5 -4 -7 -10 -4 -15 3 -4 -2 -11 -11 -14 -23 -9 -24 -8 -17 12 5 14 4 15 -8 6
-22 -18 -56 0 -56 29 0 14 5 24 13 23 7 0 12 4 11 9 -1 6 -6 10 -12 10 -19 1
-16 19 4 27 12 4 21 3 21 -2 0 -5 6 -7 13 -5 6 3 18 -4 25 -16 10 -15 10 -19
1 -14 -7 5 -10 4 -6 -2 4 -6 15 -13 26 -16 15 -4 19 0 17 17 -1 12 -6 28 -11
36 -5 10 -1 9 11 -2 12 -12 19 -34 20 -65 1 -27 3 -49 3 -50 1 -2 12 7 25 18
19 16 27 36 31 78 4 31 8 63 9 71 1 8 5 20 9 26 3 6 -3 20 -15 30 -15 14 -22
16 -25 7 -8 -22 -24 -14 -21 9 2 12 -3 23 -12 25 -13 4 -13 3 0 -6 8 -6 11
-11 5 -11 -5 0 -21 12 -34 25 -29 31 -105 37 -94 8 6 -19 -61 50 -78 80 -7 12
-6 17 3 17 6 0 -6 19 -27 41 -22 23 -34 39 -27 35 6 -4 12 -3 12 3 0 5 -5 11
-11 13 -5 2 -11 18 -11 36 -1 32 -12 43 -21 20 -3 -7 -6 -1 -6 14 -1 16 4 25
12 24 22 -4 86 -38 98 -52 6 -8 21 -14 33 -14 20 0 44 -23 118 -113 21 -25 28
-28 61 -22 20 4 34 11 31 16 -3 5 1 9 9 9 7 0 25 18 40 40 25 38 26 45 18 108
-11 87 -28 122 -57 122 -12 0 -29 7 -38 15 -8 8 -20 15 -26 15 -7 0 -10 12 -8
29 1 16 -4 38 -13 48 -8 10 -21 30 -28 45 -15 29 -69 53 -101 45 -12 -3 -29 6
-46 24 -15 16 -33 29 -40 29 -6 0 -29 16 -50 35 l-38 35 82 0 c45 0 82 4 82 9
0 14 -50 51 -69 51 -9 0 -27 9 -41 20 -16 12 -34 17 -51 13 -15 -3 -29 0 -33
5 -4 6 -22 8 -41 5 -27 -4 -35 -2 -35 10 0 9 -13 17 -34 21 -23 4 -36 13 -40
29 -7 21 -7 21 -15 2 -7 -18 -9 -18 -23 10 -32 62 -65 74 -209 79 -57 3 -85
-1 -115 -16z m286 -33 c20 -24 5 -28 -21 -6 -19 16 -20 20 -8 21 9 0 22 -7 29
-15z m-46 -14 c4 -5 -3 -7 -14 -4 -23 6 -26 13 -6 13 8 0 17 -4 20 -9z m-529
-105 c22 -16 14 -46 -12 -42 -10 2 -12 1 -5 -1 6 -3 12 -9 12 -14 0 -11 2 -11
-38 0 -21 7 -43 6 -59 0 -35 -13 -37 -7 -12 25 34 44 80 57 114 32z m-304
-232 c-11 -15 -21 -32 -21 -39 0 -7 -7 -18 -15 -25 -13 -11 -15 -7 -15 24 0
30 5 40 32 56 40 24 46 19 19 -16z m276 -51 c-5 -9 -32 -70 -41 -93 -3 -8 -4
-1 -2 15 7 44 24 85 36 85 6 0 9 -3 7 -7z m-387 -33 c0 -5 -5 -10 -11 -10 -5
0 -7 5 -4 10 3 6 8 10 11 10 2 0 4 -4 4 -10z m17 -66 c3 -8 1 -26 -5 -39 -8
-18 -8 -25 1 -28 8 -3 4 -13 -12 -28 l-23 -24 6 28 c5 20 3 27 -9 27 -12 0
-14 6 -9 27 4 15 7 33 7 40 0 18 36 16 44 -3z m693 -19 c11 -13 10 -14 -4 -9
-9 3 -16 10 -16 15 0 13 6 11 20 -6z m340 -15 c0 -5 -6 -10 -14 -10 -8 0 -18
5 -21 10 -3 6 3 10 14 10 12 0 21 -4 21 -10z m-473 -202 c-3 -7 -5 -2 -5 12 0
14 2 19 5 13 2 -7 2 -19 0 -25z m268 -38 c3 -5 1 -10 -4 -10 -6 0 -11 5 -11
10 0 6 2 10 4 10 3 0 8 -4 11 -10z m485 -5 c7 -9 8 -15 2 -15 -5 0 -12 7 -16
15 -3 8 -4 15 -2 15 2 0 9 -7 16 -15z m-1466 -131 c-1 -14 -4 -26 -6 -27 -2
-1 -22 -11 -44 -23 l-42 -21 20 34 c16 26 48 53 74 63 1 0 0 -12 -2 -26z m6
-70 c0 -11 -5 -14 -16 -10 -9 3 -23 6 -32 6 -15 0 -15 2 -2 10 23 15 50 12 50
-6z m-20 -34 c0 -4 -7 -13 -16 -21 -18 -15 -49 -73 -58 -111 -9 -38 -22 -35
-36 6 -12 38 0 105 23 124 24 19 87 21 87 2z m1747 -100 c-1 -11 -4 -20 -8
-20 -10 0 -19 27 -12 34 12 12 22 5 20 -14z m-2333 -175 c-4 -8 -10 -15 -15
-15 -4 0 -6 7 -3 15 4 8 10 15 15 15 4 0 6 -7 3 -15z m100 0 c18 -13 18 -14
-3 -12 -11 1 -21 5 -21 10 0 5 -7 4 -15 -3 -9 -8 -15 -8 -15 -2 0 9 15 19 30
21 3 0 13 -6 24 -14z m1886 -256 c0 -21 -8 -23 -29 -10 -12 8 -12 11 0 24 17
18 29 13 29 -14z m-1666 -129 c-6 -5 -24 21 -24 34 0 6 6 1 14 -10 8 -10 12
-21 10 -24z m-293 -137 c-12 -20 -14 -14 -5 12 4 9 9 14 11 11 3 -2 0 -13 -6
-23z m-1 -29 c0 -8 -19 -13 -24 -6 -3 5 1 9 9 9 8 0 15 -2 15 -3z m2025 -194
c3 -5 1 -10 -4 -10 -6 0 -11 5 -11 10 0 6 2 10 4 10 3 0 8 -4 11 -10z m-1565
-198 c0 -4 -9 -13 -20 -20 -24 -15 -26 -9 -4 12 17 18 24 20 24 8z m130 -132
c0 -5 -2 -10 -4 -10 -3 0 -8 5 -11 10 -3 6 -1 10 4 10 6 0 11 -4 11 -10z m17
-92 c-3 -8 -6 -5 -6 6 -1 11 2 17 5 13 3 -3 4 -12 1 -19z m-127 -238 c0 -5 -4
-10 -10 -10 -5 0 -10 5 -10 10 0 6 5 10 10 10 6 0 10 -4 10 -10z m30 0 c0 -5
-4 -10 -10 -10 -5 0 -10 5 -10 10 0 6 5 10 10 10 6 0 10 -4 10 -10z"/>
<path d="M675 2300 c-25 -49 -34 -130 -15 -130 5 0 7 13 4 29 -5 21 2 46 25
90 17 34 26 61 21 61 -5 0 -21 -22 -35 -50z"/>
<path d="M2410 2020 c0 -5 5 -10 11 -10 5 0 7 -4 4 -10 -3 -5 1 -10 9 -10 9 0
16 9 16 20 0 13 -7 20 -20 20 -11 0 -20 -4 -20 -10z"/>
<path d="M3030 1735 l0 -95 -172 -1 c-95 -1 -177 -2 -183 -4 -5 -1 -18 -3 -29
-3 -11 -1 -16 -7 -13 -16 4 -10 1 -13 -7 -10 -8 3 -17 0 -22 -7 -5 -8 -3 -10
6 -4 10 6 12 4 7 -8 -4 -10 -1 -17 5 -17 6 0 9 -3 6 -6 -4 -3 -17 0 -30 7 -21
11 -22 11 -9 -5 13 -15 12 -18 -7 -23 -12 -3 -22 -10 -22 -15 0 -5 3 -7 8 -4
4 2 6 -13 4 -35 -2 -21 -8 -36 -13 -33 -6 3 -8 13 -5 22 3 10 -1 28 -8 41
l-13 24 -5 -26 c-3 -15 -1 -24 3 -21 5 3 9 1 9 -5 0 -5 -6 -12 -12 -14 -10 -4
-10 -6 0 -6 14 -1 17 -41 2 -41 -5 0 -10 -8 -10 -18 0 -10 -6 -24 -12 -30 -10
-10 -10 -17 -1 -32 10 -14 10 -20 0 -24 -9 -3 -8 -8 3 -16 13 -10 13 -11 -2
-7 -9 3 -19 -1 -22 -9 -3 -9 -10 -12 -16 -9 -6 3 -7 -1 -4 -9 4 -10 1 -16 -7
-16 -10 0 -10 -3 -2 -11 13 -13 7 -35 -16 -63 -9 -11 -11 -17 -6 -13 6 3 16
-3 23 -14 10 -15 10 -19 0 -19 -8 0 -9 -3 -3 -8 17 -12 12 -65 -7 -84 -21 -21
-23 -38 -5 -38 23 0 14 -39 -10 -45 -30 -7 -30 -25 0 -25 12 0 17 -4 12 -8 -6
-4 -11 -20 -11 -37 -1 -16 1 -24 3 -18 4 10 8 9 19 -2 11 -11 12 -19 4 -35 -9
-16 -8 -18 5 -14 8 4 15 12 15 20 0 8 7 14 15 14 18 0 20 -20 3 -21 -7 0 -3
-5 10 -11 12 -6 22 -15 22 -19 0 -10 -226 -5 -255 6 -15 5 -16 4 -6 -3 11 -8
9 -11 -10 -15 -13 -2 157 -5 377 -6 221 0 416 -4 433 -7 l31 -6 0 81 c0 77 -1
81 -19 72 -17 -9 -18 -7 -14 32 3 23 9 43 14 45 5 2 9 10 9 18 0 9 -4 12 -10
9 -6 -4 -10 14 -9 47 0 29 3 47 6 41 17 -44 22 26 23 340 0 234 -3 347 -10
337 -8 -13 -10 -13 -10 1 0 16 -19 29 -41 29 -5 0 -9 -43 -9 -95z m47 -587
c-3 -7 -5 -2 -5 12 0 14 2 19 5 13 2 -7 2 -19 0 -25z"/>
<path d="M205 1740 c-3 -5 -2 -10 4 -10 5 0 13 5 16 10 3 6 2 10 -4 10 -5 0
-13 -4 -16 -10z"/>
<path d="M235 1709 c-4 -6 -5 -12 -2 -15 2 -3 7 2 10 11 7 17 1 20 -8 4z"/>
<path d="M285 1630 c-3 -5 1 -10 10 -10 9 0 13 5 10 10 -3 6 -8 10 -10 10 -2
0 -7 -4 -10 -10z"/>
<path d="M558 1503 c7 -3 16 -2 19 1 4 3 -2 6 -13 5 -11 0 -14 -3 -6 -6z"/>
<path d="M476 1305 c4 -8 11 -15 16 -15 6 0 5 6 -2 15 -7 8 -14 15 -16 15 -2
0 -1 -7 2 -15z"/>
<path d="M3080 1081 c0 -5 5 -13 10 -16 6 -3 10 -2 10 4 0 5 -4 13 -10 16 -5
3 -10 2 -10 -4z"/>
<path d="M26 992 c-3 -5 1 -9 9 -9 8 0 12 4 9 9 -3 4 -7 8 -9 8 -2 0 -6 -4 -9
-8z"/>
<path d="M2405 920 c-3 -5 -1 -10 4 -10 6 0 11 5 11 10 0 6 -2 10 -4 10 -3 0
-8 -4 -11 -10z"/>
<path d="M740 680 c0 -5 5 -10 11 -10 5 0 7 5 4 10 -3 6 -8 10 -11 10 -2 0 -4
-4 -4 -10z"/>
<path d="M1130 90 c0 -5 5 -10 11 -10 5 0 7 5 4 10 -3 6 -8 10 -11 10 -2 0 -4
-4 -4 -10z"/>
<path d="M640 51 c0 -5 7 -11 14 -14 10 -4 13 -1 9 9 -6 15 -23 19 -23 5z"/>
</g>
</svg>
